<?xml version="1.0" encoding="utf-8"?>
<!-- Generator: Adobe Illustrator 16.0.0, SVG Export Plug-In . SVG Version: 6.00 Build 0)  -->
<!DOCTYPE svg PUBLIC "-//W3C//DTD SVG 1.1//EN" "http://www.w3.org/Graphics/SVG/1.1/DTD/svg11.dtd">
<svg version="1.1" id="icons" xmlns="http://www.w3.org/2000/svg" xmlns:xlink="http://www.w3.org/1999/xlink" x="0px" y="0px"
	 width="64px" height="64px" viewBox="0 0 64 64" enable-background="new 0 0 64 64" xml:space="preserve">
<g>
	<path fill="#DA4453" d="M52.797,47.56c0.781,0.781,0.781,2.041,0,2.82l-1.41,1.42c-0.789,0.781-2.049,0.781-2.83,0l-4.408-4.41
		c0.799-0.58,1.568-1.229,2.289-1.949s1.369-1.49,1.961-2.289L52.797,47.56z"/>
	<path fill="#ED5565" d="M44.318,43.321c6.25-6.25,6.238-16.392,0-22.642c-6.25-6.239-16.381-6.25-22.631,0s-6.25,16.392,0,22.642
		C27.928,49.56,38.068,49.56,44.318,43.321z M46.438,18.56c6.699,6.7,7.35,17.16,1.961,24.592c-0.592,0.799-1.24,1.568-1.961,2.289
		s-1.49,1.369-2.289,1.949c-7.432,5.391-17.891,4.74-24.58-1.949c-7.42-7.42-7.42-19.46,0-26.881
		C26.988,11.14,39.018,11.15,46.438,18.56z"/>
	<path fill="#E6E9ED" d="M37.137,32.92c1.15-1.13,1.15-2.95,0-4.07c-1.139-1.13-2.988-1.13-4.139,0c-1.141-1.13-3-1.13-4.141,0
		c-1.141,1.12-1.141,2.94,0,4.07l4.141,4.081L37.137,32.92z M32.998,21c6.08,0,11,4.93,11,11c0,6.071-4.92,11.001-11,11.001
		c-6.061,0-11-4.93-11-11.001C21.998,25.93,26.938,21,32.998,21z"/>
	<path fill="#844747" d="M37.137,28.85c1.15,1.12,1.15,2.94,0,4.07l-4.139,4.081l-4.141-4.081c-1.141-1.13-1.141-2.95,0-4.07
		c1.141-1.13,3-1.13,4.141,0C34.148,27.72,35.998,27.72,37.137,28.85z"/>
	<path fill="#844747" d="M44.318,20.68c6.238,6.25,6.25,16.392,0,22.642c-6.25,6.238-16.391,6.238-22.631,0
		c-6.25-6.25-6.25-16.392,0-22.642S38.068,14.44,44.318,20.68z M43.998,32c0-6.07-4.92-11-11-11c-6.061,0-11,4.93-11,11
		c0,6.071,4.939,11.001,11,11.001C39.078,43.001,43.998,38.071,43.998,32z"/>
	<path fill="#E6E9ED" d="M54.918,10.08c12.109,12.11,12.109,31.729,0,43.841c-12.1,12.109-31.73,12.109-43.84,0
		c-12.1-12.111-12.1-31.73,0-43.841C23.188-2.03,42.818-2.03,54.918,10.08z M52.797,50.38c0.781-0.779,0.781-2.039,0-2.82
		l-4.398-4.408c5.389-7.432,4.738-17.892-1.961-24.592c-7.42-7.409-19.449-7.42-26.869,0c-7.42,7.421-7.42,19.461,0,26.881
		c6.689,6.689,17.148,7.34,24.58,1.949l4.408,4.41c0.781,0.781,2.041,0.781,2.83,0L52.797,50.38z"/>
	<g>
		<g>
			<g>
				<path fill="#965353" d="M33.004,44c-1.732,0-3.404-0.362-4.969-1.077c-0.502-0.229-0.723-0.822-0.494-1.324
					c0.23-0.502,0.824-0.724,1.324-0.494c2.613,1.191,5.693,1.187,8.303-0.013c0,0,0,0,0.002-0.001
					c3.543-1.627,5.834-5.197,5.834-9.095c0-0.637-0.061-1.275-0.18-1.896c-0.004-0.014-0.006-0.027-0.01-0.041
					c-0.754-3.83-3.693-6.889-7.49-7.792c-0.537-0.128-0.869-0.667-0.742-1.204c0.129-0.537,0.67-0.867,1.205-0.741
					c4.541,1.081,8.063,4.731,8.982,9.306c0.002,0.015,0.006,0.029,0.01,0.045c0.15,0.763,0.225,1.545,0.225,2.326
					c0,4.675-2.748,8.958-7,10.911c0,0-0.002,0-0.002,0.001C36.43,43.632,34.748,43.999,33.004,44z M24.373,39.814
					c-0.295,0-0.588-0.13-0.785-0.38c-1.691-2.137-2.584-4.709-2.584-7.438c0-1.898,0.455-3.787,1.316-5.466
					c0-0.001,0.002-0.001,0.002-0.001c1.592-3.102,4.439-5.357,7.813-6.188c0.541-0.129,1.078,0.197,1.209,0.732
					c0.133,0.537-0.195,1.078-0.73,1.211c-2.813,0.691-5.186,2.57-6.512,5.156c0,0.002-0.002,0.002-0.002,0.003
					c-0.727,1.416-1.096,2.948-1.096,4.552c0,2.274,0.744,4.417,2.152,6.198c0.344,0.433,0.27,1.062-0.164,1.404
					C24.809,39.744,24.59,39.814,24.373,39.814z"/>
			</g>
		</g>
	</g>
</g>
</svg>
